<svg width="32" height="32" viewBox="0 0 32 32" fill="none" xmlns="http://www.w3.org/2000/svg">
  <!-- TV Screen Background -->
  <rect x="2" y="4" width="28" height="20" rx="2" fill="#0a0a0a" stroke="#00ffff" stroke-width="2"/>
  
  <!-- Screen -->
  <rect x="4" y="6" width="24" height="16" fill="#000000"/>
  
  <!-- Scanlines -->
  <g opacity="0.3">
    <line x1="4" y1="8" x2="28" y2="8" stroke="#00ffff" stroke-width="0.5"/>
    <line x1="4" y1="10" x2="28" y2="10" stroke="#00ffff" stroke-width="0.5"/>
    <line x1="4" y1="12" x2="28" y2="12" stroke="#00ffff" stroke-width="0.5"/>
    <line x1="4" y1="14" x2="28" y2="14" stroke="#00ffff" stroke-width="0.5"/>
    <line x1="4" y1="16" x2="28" y2="16" stroke="#00ffff" stroke-width="0.5"/>
    <line x1="4" y1="18" x2="28" y2="18" stroke="#00ffff" stroke-width="0.5"/>
    <line x1="4" y1="20" x2="28" y2="20" stroke="#00ffff" stroke-width="0.5"/>
  </g>
  
  <!-- Play button -->
  <polygon points="12,10 12,18 20,14" fill="#00ffff" opacity="0.8"/>
  
  <!-- TV Base -->
  <rect x="12" y="24" width="8" height="4" rx="1" fill="#333333" stroke="#00ffff" stroke-width="1"/>
  
  <!-- Antenna -->
  <line x1="8" y1="4" x2="6" y2="0" stroke="#00ffff" stroke-width="1.5" stroke-linecap="round"/>
  <line x1="24" y1="4" x2="26" y2="0" stroke="#00ffff" stroke-width="1.5" stroke-linecap="round"/>
  
  <!-- Power LED -->
  <circle cx="26" cy="26" r="1" fill="#00ff00">
    <animate attributeName="opacity" values="1;0.3;1" dur="2s" repeatCount="indefinite"/>
  </circle>
  
  <!-- Glow effect -->
  <defs>
    <filter id="glow">
      <feGaussianBlur stdDeviation="2" result="coloredBlur"/>
      <feMerge> 
        <feMergeNode in="coloredBlur"/>
        <feMergeNode in="SourceGraphic"/>
      </feMerge>
    </filter>
  </defs>
  
  <rect x="2" y="4" width="28" height="20" rx="2" fill="none" stroke="#00ffff" stroke-width="1" filter="url(#glow)" opacity="0.5"/>
</svg>